<svg viewBox="0 0 26 24" fill="none" xmlns="http://www.w3.org/2000/svg">
  <path d="M22.449 0H2.694c-.715 0-1.4.27-1.905.753A2.514 2.514 0 000 2.571V21.43c0 .682.284 1.336.789 1.818A2.76 2.76 0 002.694 24h7.703v-8.16H6.86V12h3.536V9.073c0-3.33 2.076-5.169 5.257-5.169 1.523 0 3.116.26 3.116.26V7.43h-1.755c-1.73 0-2.269 1.025-2.269 2.075V12h3.86l-.617 3.84h-3.243V24h7.703c.714 0 1.4-.27 1.905-.753.505-.482.789-1.136.789-1.818V2.57c0-.682-.284-1.336-.79-1.818A2.76 2.76 0 0022.45 0z" fill="#000"/>
</svg>
