<svg viewBox="0 0 26 24" fill="none" xmlns="http://www.w3.org/2000/svg">
  <path d="M13.077 5.847c-3.568 0-6.446 2.747-6.446 6.153 0 3.406 2.878 6.153 6.446 6.153 3.568 0 6.446-2.747 6.446-6.153 0-3.406-2.878-6.153-6.446-6.153zm0 10.153c-2.306 0-4.19-1.794-4.19-4s1.879-4 4.19-4c2.312 0 4.191 1.794 4.191 4s-1.885 4-4.191 4zm8.214-10.405c0 .798-.674 1.435-1.504 1.435-.836 0-1.503-.642-1.503-1.435s.673-1.435 1.503-1.435c.83 0 1.504.642 1.504 1.435zm4.27 1.457c-.096-1.923-.556-3.626-2.032-5.029C22.06.62 20.275.181 18.261.084c-2.076-.112-8.298-.112-10.374 0C5.88.175 4.095.614 2.62 2.018 1.144 3.42.69 5.124.59 7.046c-.118 1.982-.118 7.92 0 9.902.095 1.923.555 3.626 2.03 5.029 1.476 1.403 3.254 1.842 5.268 1.939 2.076.112 8.298.112 10.374 0 2.014-.091 3.798-.53 5.268-1.939 1.47-1.403 1.93-3.106 2.031-5.029.118-1.981.118-7.915 0-9.896zm-2.683 12.022c-.437 1.05-1.284 1.859-2.39 2.282-1.655.626-5.582.482-7.411.482-1.829 0-5.762.139-7.411-.482-1.1-.418-1.947-1.227-2.39-2.282-.657-1.58-.505-5.328-.505-7.074 0-1.746-.146-5.5.505-7.074.437-1.05 1.285-1.859 2.39-2.282 1.655-.626 5.582-.482 7.411-.482 1.829 0 5.762-.139 7.411.482 1.1.418 1.947 1.227 2.39 2.282.657 1.58.505 5.328.505 7.074 0 1.746.152 5.5-.505 7.074z" fill="#000"/>
</svg>
