<svg viewBox="0 0 28 24" fill="none" xmlns="http://www.w3.org/2000/svg">
  <path d="M24.803 5.981c.017.263.017.525.017.788C24.82 14.775 19.234 24 9.025 24 5.88 24 2.958 23.006.5 21.281c.447.056.877.075 1.34.075 2.596 0 4.985-.956 6.893-2.587-2.44-.056-4.486-1.8-5.19-4.2.343.056.687.093 1.048.093.498 0 .997-.075 1.46-.206-2.543-.562-4.451-3-4.451-5.944v-.074c.739.45 1.598.73 2.51.768C2.613 8.12 1.633 6.262 1.633 4.162c0-1.125.275-2.156.757-3.056 2.732 3.675 6.84 6.075 11.446 6.338a7.436 7.436 0 01-.137-1.388C13.7 2.72 16.175 0 19.252 0c1.598 0 3.042.731 4.056 1.913A10.394 10.394 0 0026.83.45c-.412 1.406-1.289 2.588-2.44 3.337 1.117-.13 2.2-.468 3.196-.937a12.583 12.583 0 01-2.784 3.131z" fill="#000"/>
</svg>
